# xmcd
#
# Track frame offsets: 
#        150
#        14374
#        33935
#        55611
#        72895
#        96064
#        114103
#        126484
#        144997
#        162228
#        174787
#        188719
#        200600
#        216093
#        234912
#        256763
#        267522
#        278026
#        296996
#        312637
#
# Disc length: 4375 seconds
#
# Revision: 0
# Processed by: cddbd v1.5.2PL0 Copyright (c) Steve Scherf et al.
# Submitted via: ExactAudioCopy v1.0b3
#
DISCID=1e111514
DTITLE=Il Guardiano Del Faro - Il Sole and La Luna [CD 1)
DYEAR=2009
DGENRE=Instrumental
TTITLE0=Sinfonia Al Sole Che Nasce
TTITLE1=Nelle Braccia Del Vento
TTITLE2=Se Tu Mi Vuoi
TTITLE3=Solamente Lei
TTITLE4=E Poi Amarsi Ancora
TTITLE5=E Tu Mi Lasci Già
TTITLE6=Amico
TTITLE7=Disco Divina
TTITLE8=Il Gabbiano Infelice
TTITLE9=Amore Tra Le Dita
TTITLE10=Zenith
TTITLE11=Lei
TTITLE12=La Collina Dei Pensieri
TTITLE13=Oasis
TTITLE14=Miss Springtime
TTITLE15=Occhi Scuri Cielo Chiaro
TTITLE16=Desiderio
TTITLE17=Ritorno Alla Realtà
TTITLE18=Tu Sempre Tu
TTITLE19=Questa Sera O Mai Più
EXTD=
EXTT0=
EXTT1=
EXTT2=
EXTT3=
EXTT4=
EXTT5=
EXTT6=
EXTT7=
EXTT8=
EXTT9=
EXTT10=
EXTT11=
EXTT12=
EXTT13=
EXTT14=
EXTT15=
EXTT16=
EXTT17=
EXTT18=
EXTT19=
PLAYORDER=
